<svg width="300" height="300" viewBox="0 0 300 300" xmlns="http://www.w3.org/2000/svg">
<circle cx="150" cy="150" r="150" fill="#FFF500"/>
<path d="M80 135.714C91.0312 135.714 100 122.902 100 107.143C100 91.3839 91.0312 78.5714 80 78.5714C68.9688 78.5714 60 91.3839 60 107.143C60 122.902 68.9688 135.714 80 135.714ZM220 135.714C231.031 135.714 240 122.902 240 107.143C240 91.3839 231.031 78.5714 220 78.5714C208.969 78.5714 200 91.3839 200 107.143C200 122.902 208.969 135.714 220 135.714ZM230 150H210C204.5 150 199.531 153.17 195.906 158.304C208.5 168.17 217.438 185.982 219.375 207.143H240C245.531 207.143 250 200.759 250 192.857V178.571C250 162.812 241.031 150 230 150ZM150 150C169.344 150 185 127.634 185 100C185 72.3661 169.344 50 150 50C130.656 50 115 72.3661 115 100C115 127.634 130.656 150 150 150ZM174 164.286H171.406C164.906 168.75 157.688 171.429 150 171.429C142.312 171.429 135.125 168.75 128.594 164.286H126C106.125 164.286 90 187.321 90 215.714V228.571C90 240.402 96.7188 250 105 250H195C203.281 250 210 240.402 210 228.571V215.714C210 187.321 193.875 164.286 174 164.286ZM104.094 158.304C100.469 153.17 95.5 150 90 150H70C58.9688 150 50 162.812 50 178.571V192.857C50 200.759 54.4687 207.143 60 207.143H80.5938C82.5625 185.982 91.5 168.17 104.094 158.304Z" fill="black"/>
</svg>
