<svg viewBox="0 0 383 125" xmlns="http://www.w3.org/2000/svg">
<path d="M15 54.8571C20.5156 54.8571 25 48.4509 25 40.5714C25 32.692 20.5156 26.2857 15 26.2857C9.48438 26.2857 5 32.692 5 40.5714C5 48.4509 9.48438 54.8571 15 54.8571ZM85 54.8571C90.5156 54.8571 95 48.4509 95 40.5714C95 32.692 90.5156 26.2857 85 26.2857C79.4844 26.2857 75 32.692 75 40.5714C75 48.4509 79.4844 54.8571 85 54.8571ZM90 62H80C77.25 62 74.7656 63.5848 72.9531 66.1518C79.25 71.0848 83.7188 79.9911 84.6875 90.5714H95C97.7656 90.5714 100 87.3795 100 83.4286V76.2857C100 68.4062 95.5156 62 90 62ZM50 62C59.6719 62 67.5 50.817 67.5 37C67.5 23.183 59.6719 12 50 12C40.3281 12 32.5 23.183 32.5 37C32.5 50.817 40.3281 62 50 62ZM62 69.1429H60.7031C57.4531 71.375 53.8438 72.7143 50 72.7143C46.1562 72.7143 42.5625 71.375 39.2969 69.1429H38C28.0625 69.1429 20 80.6607 20 94.8571V101.286C20 107.201 23.3594 112 27.5 112H72.5C76.6406 112 80 107.201 80 101.286V94.8571C80 80.6607 71.9375 69.1429 62 69.1429ZM27.0469 66.1518C25.2344 63.5848 22.75 62 20 62H10C4.48438 62 0 68.4062 0 76.2857V83.4286C0 87.3795 2.23437 90.5714 5 90.5714H15.2969C16.2813 79.9911 20.75 71.0848 27.0469 66.1518Z" fill="#1400FF"/>
<path d="M15 54.8571C20.5156 54.8571 25 48.4509 25 40.5714C25 32.692 20.5156 26.2857 15 26.2857C9.48438 26.2857 5 32.692 5 40.5714C5 48.4509 9.48438 54.8571 15 54.8571ZM85 54.8571C90.5156 54.8571 95 48.4509 95 40.5714C95 32.692 90.5156 26.2857 85 26.2857C79.4844 26.2857 75 32.692 75 40.5714C75 48.4509 79.4844 54.8571 85 54.8571ZM90 62H80C77.25 62 74.7656 63.5848 72.9531 66.1518C79.25 71.0848 83.7188 79.9911 84.6875 90.5714H95C97.7656 90.5714 100 87.3795 100 83.4286V76.2857C100 68.4062 95.5156 62 90 62ZM50 62C59.6719 62 67.5 50.817 67.5 37C67.5 23.183 59.6719 12 50 12C40.3281 12 32.5 23.183 32.5 37C32.5 50.817 40.3281 62 50 62ZM62 69.1429H60.7031C57.4531 71.375 53.8438 72.7143 50 72.7143C46.1562 72.7143 42.5625 71.375 39.2969 69.1429H38C28.0625 69.1429 20 80.6607 20 94.8571V101.286C20 107.201 23.3594 112 27.5 112H72.5C76.6406 112 80 107.201 80 101.286V94.8571C80 80.6607 71.9375 69.1429 62 69.1429ZM27.0469 66.1518C25.2344 63.5848 22.75 62 20 62H10C4.48438 62 0 68.4062 0 76.2857V83.4286C0 87.3795 2.23437 90.5714 5 90.5714H15.2969C16.2813 79.9911 20.75 71.0848 27.0469 66.1518Z" fill="url(#paint0_diamond)"/>
<path d="M123.748 98.4141C121.86 100.042 120.118 100.855 118.523 100.855C116.961 100.855 115.773 100.465 114.959 99.6836C114.178 98.9349 113.787 97.9421 113.787 96.7051C114.536 96.347 115.105 95.9564 115.496 95.5332C114.943 93.873 114.666 91.8874 114.666 89.5762C114.666 87.265 115.057 84.9538 115.838 82.6426C116.652 80.2988 117.84 78.1016 119.402 76.0508C122.202 72.4375 126.906 68.6615 133.514 64.7227C137.452 62.0859 140.236 59.4167 141.863 56.7148C143.816 53.3945 144.793 49.1953 144.793 44.1172C144.793 34.612 141.554 29.8594 135.076 29.8594C131.788 29.8594 129.005 30.9987 126.727 33.2773C124.285 35.7188 123.064 39.0553 123.064 43.2871C123.064 47.5189 123.895 50.6764 125.555 52.7598C124.806 53.3783 124.025 53.6875 123.211 53.6875C122.43 53.6875 121.616 53.541 120.77 53.248C119.923 52.9225 119.142 52.4505 118.426 51.832C116.798 50.3346 115.984 48.5768 115.984 46.5586C115.984 44.5078 116.245 42.8965 116.766 41.7246C115.04 40.5853 114.178 39.1042 114.178 37.2812C114.178 35.4583 114.796 33.8958 116.033 32.5938C114.992 31.2591 114.471 30.0384 114.471 28.9316C114.471 27.7923 114.617 26.832 114.91 26.0508C115.236 25.237 115.691 24.5208 116.277 23.9023C117.482 22.6328 118.947 21.998 120.672 21.998C121.518 21.998 122.299 22.1771 123.016 22.5352C122.56 23.1536 122.332 23.8047 122.332 24.4883C122.332 25.3672 122.82 25.8066 123.797 25.8066C124.448 25.8066 125.652 25.5137 127.41 24.9277C130.633 23.8535 134.197 23.3164 138.104 23.3164C142.01 23.3164 145.151 23.5605 147.527 24.0488C149.936 24.5371 152.117 25.3184 154.07 26.3926C158.009 28.541 161.102 32.0729 163.348 36.9883C164.389 39.3646 165.936 41.1549 167.986 42.3594C166.033 43.4661 164.406 45.6471 163.104 48.9023C160.727 54.6966 156.805 59.4818 151.336 63.2578C149.448 64.5273 146.99 65.9108 143.963 67.4082C140.936 68.873 138.169 70.3542 135.662 71.8516C133.156 73.349 131.121 74.7487 129.559 76.0508C126.661 78.4596 124.904 80.9499 124.285 83.5215C128.81 84.3027 133.611 84.6934 138.689 84.6934C143.768 84.6934 147.316 84.5469 149.334 84.2539C151.352 83.9284 152.964 83.4401 154.168 82.7891C156.414 81.6497 157.537 79.7943 157.537 77.2227C157.537 76.2786 157.342 75.4648 156.951 74.7812C157.146 74.3255 157.7 74.0977 158.611 74.0977C159.523 74.0977 160.32 74.2767 161.004 74.6348C161.72 74.9928 162.339 75.4648 162.859 76.0508C163.966 77.3529 164.52 78.9967 164.52 80.9824C164.52 82.9681 163.722 84.791 162.127 86.4512C163.364 87.265 163.982 88.4043 163.982 89.8691C163.982 91.334 163.559 92.4896 162.713 93.3359C163.169 94.0846 163.396 94.8496 163.396 95.6309C163.396 96.3796 163.25 97.0306 162.957 97.584C162.697 98.1048 162.339 98.5443 161.883 98.9023C160.906 99.6185 159.669 99.9766 158.172 99.9766C156.674 99.9766 155.275 99.651 153.973 99C149.253 99.651 144.37 99.9766 139.324 99.9766C134.311 99.9766 129.119 99.4557 123.748 98.4141ZM145.623 30.543C148.032 33.2448 149.236 37.4766 149.236 43.2383C149.236 48.8698 148.781 52.776 147.869 54.957C149.171 54.6966 150.294 53.3294 151.238 50.8555C151.564 49.944 151.808 49 151.971 48.0234C152.166 47.0469 152.312 46.2819 152.41 45.7285C152.54 45.1751 152.736 44.6868 152.996 44.2637C153.484 43.4173 154.347 42.7826 155.584 42.3594C154.282 41.9362 153.484 41.4967 153.191 41.041C152.898 40.5527 152.687 40.0807 152.557 39.625L152.068 37.916C151.255 35.0189 149.839 32.8704 147.82 31.4707C147.137 30.9824 146.404 30.6732 145.623 30.543ZM155.877 88.3066C152.426 89.8366 146.925 90.6016 139.373 90.6016C131.821 90.6016 126.613 89.9668 123.748 88.6973C123.618 88.8926 123.602 89.1855 123.699 89.5762C123.797 89.9668 123.976 90.3249 124.236 90.6504C124.497 90.9759 125.197 91.2852 126.336 91.5781C127.508 91.8711 128.842 92.099 130.34 92.2617C132.618 92.5547 135.092 92.7012 137.762 92.7012C140.431 92.7012 142.612 92.6686 144.305 92.6035C146.03 92.5384 147.641 92.4245 149.139 92.2617C152.622 91.8385 154.705 91.1712 155.389 90.2598C155.812 89.7064 155.975 89.0553 155.877 88.3066ZM213.006 98.3652C211.313 99.4395 209.425 99.9766 207.342 99.9766C205.291 99.9766 203.387 99.4395 201.629 98.3652C199.839 99.4395 198.195 99.9766 196.697 99.9766C195.2 99.9766 193.995 99.8464 193.084 99.5859C192.173 99.3581 191.375 99.0326 190.691 98.6094C189.292 97.763 188.592 96.7051 188.592 95.4355C188.592 94.7845 188.771 94.2148 189.129 93.7266C189.845 94.2799 190.789 94.5566 191.961 94.5566C193.165 94.5566 194.37 94.2474 195.574 93.6289C196.811 93.0104 197.739 92.0501 198.357 90.748V66.9688C198.357 65.4714 198.048 64.3646 197.43 63.6484C196.453 62.444 194.777 61.2559 192.4 60.084C194.614 59.0749 196.046 58.1797 196.697 57.3984C197.804 56.1289 198.357 54.6966 198.357 53.1016V30.4453C197.283 30.0547 195.997 29.8594 194.5 29.8594C193.035 29.8594 191.489 30.25 189.861 31.0312C188.234 31.8125 186.769 32.9518 185.467 34.4492C182.57 37.8346 181.121 42.2617 181.121 47.7305C181.121 50.888 181.642 53.2155 182.684 54.7129C182.293 55.5267 181.561 55.9336 180.486 55.9336C179.412 55.9336 178.452 55.6895 177.605 55.2012C176.759 54.7129 176.027 54.0456 175.408 53.1992C174.139 51.5065 173.504 49.6836 173.504 47.7305C173.504 45.7773 173.862 44.1172 174.578 42.75C173.374 41.3177 172.771 39.7064 172.771 37.916C172.771 36.0931 173.26 34.5957 174.236 33.4238C172.869 31.959 172.186 29.9896 172.186 27.5156C172.186 24.651 173.504 22.7305 176.141 21.7539C176.922 21.4609 177.605 21.3145 178.191 21.3145C179.298 21.3145 180.128 21.5586 180.682 22.0469C180.454 22.8281 180.34 23.3815 180.34 23.707C180.34 25.0091 180.796 25.6602 181.707 25.6602C182.195 25.6602 182.7 25.5951 183.221 25.4648L185.418 24.8301C189.227 23.821 192.4 23.3164 194.939 23.3164C197.479 23.3164 199.708 23.8698 201.629 24.9766C203.289 23.8698 205.177 23.3164 207.293 23.3164C209.409 23.3164 211.329 23.8698 213.055 24.9766C214.91 23.8698 216.831 23.3164 218.816 23.3164C221.974 23.3164 224.741 23.6419 227.117 24.293L231.463 25.4648C231.984 25.5951 232.488 25.6602 232.977 25.6602C233.888 25.6602 234.344 25.0091 234.344 23.707C234.344 23.3815 234.23 22.8281 234.002 22.0469C234.555 21.5586 235.255 21.3145 236.102 21.3145C236.948 21.3145 237.762 21.4609 238.543 21.7539C239.324 22.0469 240.008 22.4701 240.594 23.0234C241.863 24.1628 242.498 25.8066 242.498 27.9551C242.498 30.071 241.814 31.8939 240.447 33.4238C241.424 34.5957 241.912 36.0768 241.912 37.8672C241.912 39.6576 241.294 41.2852 240.057 42.75C240.805 44.0846 241.18 45.4193 241.18 46.7539C241.18 48.0885 241.017 49.293 240.691 50.3672C240.366 51.4414 239.894 52.3854 239.275 53.1992C237.941 55.0221 236.264 55.9336 234.246 55.9336C233.139 55.9336 232.391 55.5267 232 54.7129C233.042 53.2155 233.562 50.9694 233.562 47.9746C233.562 44.9473 233.156 42.3268 232.342 40.1133C231.561 37.8672 230.519 35.9792 229.217 34.4492C226.58 31.3893 223.471 29.8594 219.891 29.8594C218.523 29.8594 217.335 30.0547 216.326 30.4453V53.1016C216.326 54.6966 216.668 55.8848 217.352 56.666C218.426 57.9355 220.07 59.0749 222.283 60.084C219.907 61.2559 218.393 62.2161 217.742 62.9648C216.798 64.1367 216.326 65.4714 216.326 66.9688V90.748C216.912 92.0501 217.807 93.0104 219.012 93.6289C220.249 94.2474 221.469 94.5566 222.674 94.5566C223.878 94.5566 224.839 94.2799 225.555 93.7266C225.913 94.2148 226.092 94.7845 226.092 95.4355C226.092 96.054 225.896 96.64 225.506 97.1934C225.148 97.7467 224.643 98.2188 223.992 98.6094C222.495 99.5208 220.737 99.9766 218.719 99.9766C216.733 99.9766 214.829 99.4395 213.006 98.3652ZM203.045 86.0605C204.673 85.4421 205.568 83.3099 205.73 79.6641C205.926 76.0182 206.023 70.9727 206.023 64.5273C206.023 58.082 206.007 53.8014 205.975 51.6855C205.975 49.5371 205.958 47.8118 205.926 46.5098C205.828 42.6686 205.454 40.3574 204.803 39.5762C204.184 38.7624 203.598 38.2253 203.045 37.9648C203.045 49.293 202.85 55.7383 202.459 57.3008C202.003 58.6029 200.896 59.5306 199.139 60.084C201.092 60.7676 202.199 61.5977 202.459 62.5742C202.85 64.1367 203.045 69.8496 203.045 79.7129V86.0605ZM260.955 98.4141C259.067 100.042 257.326 100.855 255.73 100.855C254.168 100.855 252.98 100.465 252.166 99.6836C251.385 98.9349 250.994 97.9421 250.994 96.7051C251.743 96.347 252.312 95.9564 252.703 95.5332C252.15 93.873 251.873 91.8874 251.873 89.5762C251.873 87.265 252.264 84.9538 253.045 82.6426C253.859 80.2988 255.047 78.1016 256.609 76.0508C259.409 72.4375 264.113 68.6615 270.721 64.7227C274.66 62.0859 277.443 59.4167 279.07 56.7148C281.023 53.3945 282 49.1953 282 44.1172C282 34.612 278.761 29.8594 272.283 29.8594C268.995 29.8594 266.212 30.9987 263.934 33.2773C261.492 35.7188 260.271 39.0553 260.271 43.2871C260.271 47.5189 261.102 50.6764 262.762 52.7598C262.013 53.3783 261.232 53.6875 260.418 53.6875C259.637 53.6875 258.823 53.541 257.977 53.248C257.13 52.9225 256.349 52.4505 255.633 51.832C254.005 50.3346 253.191 48.5768 253.191 46.5586C253.191 44.5078 253.452 42.8965 253.973 41.7246C252.247 40.5853 251.385 39.1042 251.385 37.2812C251.385 35.4583 252.003 33.8958 253.24 32.5938C252.199 31.2591 251.678 30.0384 251.678 28.9316C251.678 27.7923 251.824 26.832 252.117 26.0508C252.443 25.237 252.898 24.5208 253.484 23.9023C254.689 22.6328 256.154 21.998 257.879 21.998C258.725 21.998 259.507 22.1771 260.223 22.5352C259.767 23.1536 259.539 23.8047 259.539 24.4883C259.539 25.3672 260.027 25.8066 261.004 25.8066C261.655 25.8066 262.859 25.5137 264.617 24.9277C267.84 23.8535 271.404 23.3164 275.311 23.3164C279.217 23.3164 282.358 23.5605 284.734 24.0488C287.143 24.5371 289.324 25.3184 291.277 26.3926C295.216 28.541 298.309 32.0729 300.555 36.9883C301.596 39.3646 303.143 41.1549 305.193 42.3594C303.24 43.4661 301.613 45.6471 300.311 48.9023C297.934 54.6966 294.012 59.4818 288.543 63.2578C286.655 64.5273 284.197 65.9108 281.17 67.4082C278.143 68.873 275.376 70.3542 272.869 71.8516C270.363 73.349 268.328 74.7487 266.766 76.0508C263.868 78.4596 262.111 80.9499 261.492 83.5215C266.017 84.3027 270.818 84.6934 275.896 84.6934C280.975 84.6934 284.523 84.5469 286.541 84.2539C288.559 83.9284 290.171 83.4401 291.375 82.7891C293.621 81.6497 294.744 79.7943 294.744 77.2227C294.744 76.2786 294.549 75.4648 294.158 74.7812C294.354 74.3255 294.907 74.0977 295.818 74.0977C296.73 74.0977 297.527 74.2767 298.211 74.6348C298.927 74.9928 299.546 75.4648 300.066 76.0508C301.173 77.3529 301.727 78.9967 301.727 80.9824C301.727 82.9681 300.929 84.791 299.334 86.4512C300.571 87.265 301.189 88.4043 301.189 89.8691C301.189 91.334 300.766 92.4896 299.92 93.3359C300.376 94.0846 300.604 94.8496 300.604 95.6309C300.604 96.3796 300.457 97.0306 300.164 97.584C299.904 98.1048 299.546 98.5443 299.09 98.9023C298.113 99.6185 296.876 99.9766 295.379 99.9766C293.882 99.9766 292.482 99.651 291.18 99C286.46 99.651 281.577 99.9766 276.531 99.9766C271.518 99.9766 266.326 99.4557 260.955 98.4141ZM282.83 30.543C285.239 33.2448 286.443 37.4766 286.443 43.2383C286.443 48.8698 285.988 52.776 285.076 54.957C286.378 54.6966 287.501 53.3294 288.445 50.8555C288.771 49.944 289.015 49 289.178 48.0234C289.373 47.0469 289.52 46.2819 289.617 45.7285C289.747 45.1751 289.943 44.6868 290.203 44.2637C290.691 43.4173 291.554 42.7826 292.791 42.3594C291.489 41.9362 290.691 41.4967 290.398 41.041C290.105 40.5527 289.894 40.0807 289.764 39.625L289.275 37.916C288.462 35.0189 287.046 32.8704 285.027 31.4707C284.344 30.9824 283.611 30.6732 282.83 30.543ZM293.084 88.3066C289.633 89.8366 284.132 90.6016 276.58 90.6016C269.028 90.6016 263.82 89.9668 260.955 88.6973C260.825 88.8926 260.809 89.1855 260.906 89.5762C261.004 89.9668 261.183 90.3249 261.443 90.6504C261.704 90.9759 262.404 91.2852 263.543 91.5781C264.715 91.8711 266.049 92.099 267.547 92.2617C269.826 92.5547 272.299 92.7012 274.969 92.7012C277.638 92.7012 279.819 92.6686 281.512 92.6035C283.237 92.5384 284.848 92.4245 286.346 92.2617C289.829 91.8385 291.912 91.1712 292.596 90.2598C293.019 89.7064 293.182 89.0553 293.084 88.3066ZM313.494 98.6582C312.29 99.5371 310.906 99.9766 309.344 99.9766C307.814 99.9766 306.593 99.5859 305.682 98.8047C304.738 97.9909 304.266 97.0632 304.266 96.0215C304.266 94.9798 304.428 94.2148 304.754 93.7266C305.698 94.2799 306.854 94.5566 308.221 94.5566C309.62 94.5566 310.662 94.3776 311.346 94.0195C312.062 93.6289 312.745 93.1081 313.396 92.457L320.33 71.9004L321.307 68.5312C321.6 67.5221 321.746 66.5944 321.746 65.748C321.746 62.7858 320.346 60.8978 317.547 60.084C320.118 59.1074 321.925 58.0495 322.967 56.9102C324.594 55.1198 325.88 52.7598 326.824 49.8301L332.195 31.8125C331.154 30.4128 329.917 29.7129 328.484 29.7129C327.052 29.7129 325.717 30.0221 324.48 30.6406C324.155 30.0547 323.992 29.4036 323.992 28.6875C323.992 27.9388 324.139 27.2389 324.432 26.5879C324.757 25.9368 325.197 25.3672 325.75 24.8789C326.987 23.8372 328.745 23.3164 331.023 23.3164C333.302 23.3164 335.239 24 336.834 25.3672C338.462 24 340.48 23.3164 342.889 23.3164C345.33 23.3164 347.267 23.9674 348.699 25.2695C350.783 23.9674 352.898 23.3164 355.047 23.3164C357.195 23.3164 358.855 23.7233 360.027 24.5371C361.232 25.3509 361.834 26.4577 361.834 27.8574C361.834 28.5085 361.639 29.0781 361.248 29.5664C360.499 29.013 359.62 28.7363 358.611 28.7363C356.43 28.7363 355.014 30.2174 354.363 33.1797L360.613 53.1504C361.395 55.6569 363.348 57.61 366.473 59.0098C367.352 59.4004 368.247 59.7585 369.158 60.084C365.903 61.1582 364.275 62.7695 364.275 64.918C364.275 65.7318 364.406 66.4479 364.666 67.0664L373.992 92.0664C375.424 93.5638 376.873 94.3125 378.338 94.3125C379.803 94.3125 380.942 94.0358 381.756 93.4824C382.114 93.7428 382.293 94.2311 382.293 94.9473C382.293 95.6634 382.179 96.3307 381.951 96.9492C381.723 97.5352 381.365 98.056 380.877 98.5117C379.835 99.4883 378.305 99.9766 376.287 99.9766C374.269 99.9766 372.511 99.4232 371.014 98.3164C369.321 99.4232 367.4 99.9766 365.252 99.9766C363.136 99.9766 361.313 99.4395 359.783 98.3652C358.318 99.4395 356.593 99.9766 354.607 99.9766C352.622 99.9766 350.978 99.5697 349.676 98.7559C348.374 97.9095 347.69 96.7214 347.625 95.1914C347.625 94.2799 347.804 93.7103 348.162 93.4824C349.041 94.0358 349.936 94.3125 350.848 94.3125C352.768 94.3125 354.119 93.9219 354.9 93.1406L351.189 80.6895H324.773L321.551 91.4805C322.885 93.5312 324.497 94.5566 326.385 94.5566C328.305 94.5566 329.738 94.2799 330.682 93.7266C331.04 94.3125 331.219 95.1263 331.219 96.168C331.219 97.1771 330.714 98.0723 329.705 98.8535C328.696 99.6022 327.394 99.9766 325.799 99.9766C324.204 99.9766 322.739 99.5697 321.404 98.7559C320.232 99.5697 318.882 99.9766 317.352 99.9766C315.854 99.9766 314.568 99.5371 313.494 98.6582ZM349.188 74.0977L337.859 36.4512L326.727 74.0977H349.188ZM358.514 86.0605C359.1 86.0605 359.393 85.4095 359.393 84.1074C359.393 81.8288 359.051 79.6152 358.367 77.4668L356.512 71.7539C355.21 67.457 354.559 64.7552 354.559 63.6484C354.526 61.8255 355.324 60.6211 356.951 60.0352C354.705 59.5794 353.338 58.8796 352.85 57.9355C352.622 57.5449 352.426 57.2357 352.264 57.0078C352.133 56.7799 351.987 56.5195 351.824 56.2266C351.694 55.901 351.531 55.4941 351.336 55.0059C351.141 54.5176 350.88 53.8177 350.555 52.9062L347.527 43.7754C346.811 41.4967 345.753 39.7715 344.354 38.5996C343.93 38.2415 343.54 38.0299 343.182 37.9648C345.363 45.8424 346.795 50.888 347.479 53.1016C352.199 67.6198 355.031 76.2298 355.975 78.9316L358.514 86.0605ZM372.918 90.4551L373.016 90.748L372.918 90.4551Z" fill="#1400FF"/>
<path d="M123.748 98.4141C121.86 100.042 120.118 100.855 118.523 100.855C116.961 100.855 115.773 100.465 114.959 99.6836C114.178 98.9349 113.787 97.9421 113.787 96.7051C114.536 96.347 115.105 95.9564 115.496 95.5332C114.943 93.873 114.666 91.8874 114.666 89.5762C114.666 87.265 115.057 84.9538 115.838 82.6426C116.652 80.2988 117.84 78.1016 119.402 76.0508C122.202 72.4375 126.906 68.6615 133.514 64.7227C137.452 62.0859 140.236 59.4167 141.863 56.7148C143.816 53.3945 144.793 49.1953 144.793 44.1172C144.793 34.612 141.554 29.8594 135.076 29.8594C131.788 29.8594 129.005 30.9987 126.727 33.2773C124.285 35.7188 123.064 39.0553 123.064 43.2871C123.064 47.5189 123.895 50.6764 125.555 52.7598C124.806 53.3783 124.025 53.6875 123.211 53.6875C122.43 53.6875 121.616 53.541 120.77 53.248C119.923 52.9225 119.142 52.4505 118.426 51.832C116.798 50.3346 115.984 48.5768 115.984 46.5586C115.984 44.5078 116.245 42.8965 116.766 41.7246C115.04 40.5853 114.178 39.1042 114.178 37.2812C114.178 35.4583 114.796 33.8958 116.033 32.5938C114.992 31.2591 114.471 30.0384 114.471 28.9316C114.471 27.7923 114.617 26.832 114.91 26.0508C115.236 25.237 115.691 24.5208 116.277 23.9023C117.482 22.6328 118.947 21.998 120.672 21.998C121.518 21.998 122.299 22.1771 123.016 22.5352C122.56 23.1536 122.332 23.8047 122.332 24.4883C122.332 25.3672 122.82 25.8066 123.797 25.8066C124.448 25.8066 125.652 25.5137 127.41 24.9277C130.633 23.8535 134.197 23.3164 138.104 23.3164C142.01 23.3164 145.151 23.5605 147.527 24.0488C149.936 24.5371 152.117 25.3184 154.07 26.3926C158.009 28.541 161.102 32.0729 163.348 36.9883C164.389 39.3646 165.936 41.1549 167.986 42.3594C166.033 43.4661 164.406 45.6471 163.104 48.9023C160.727 54.6966 156.805 59.4818 151.336 63.2578C149.448 64.5273 146.99 65.9108 143.963 67.4082C140.936 68.873 138.169 70.3542 135.662 71.8516C133.156 73.349 131.121 74.7487 129.559 76.0508C126.661 78.4596 124.904 80.9499 124.285 83.5215C128.81 84.3027 133.611 84.6934 138.689 84.6934C143.768 84.6934 147.316 84.5469 149.334 84.2539C151.352 83.9284 152.964 83.4401 154.168 82.7891C156.414 81.6497 157.537 79.7943 157.537 77.2227C157.537 76.2786 157.342 75.4648 156.951 74.7812C157.146 74.3255 157.7 74.0977 158.611 74.0977C159.523 74.0977 160.32 74.2767 161.004 74.6348C161.72 74.9928 162.339 75.4648 162.859 76.0508C163.966 77.3529 164.52 78.9967 164.52 80.9824C164.52 82.9681 163.722 84.791 162.127 86.4512C163.364 87.265 163.982 88.4043 163.982 89.8691C163.982 91.334 163.559 92.4896 162.713 93.3359C163.169 94.0846 163.396 94.8496 163.396 95.6309C163.396 96.3796 163.25 97.0306 162.957 97.584C162.697 98.1048 162.339 98.5443 161.883 98.9023C160.906 99.6185 159.669 99.9766 158.172 99.9766C156.674 99.9766 155.275 99.651 153.973 99C149.253 99.651 144.37 99.9766 139.324 99.9766C134.311 99.9766 129.119 99.4557 123.748 98.4141ZM145.623 30.543C148.032 33.2448 149.236 37.4766 149.236 43.2383C149.236 48.8698 148.781 52.776 147.869 54.957C149.171 54.6966 150.294 53.3294 151.238 50.8555C151.564 49.944 151.808 49 151.971 48.0234C152.166 47.0469 152.312 46.2819 152.41 45.7285C152.54 45.1751 152.736 44.6868 152.996 44.2637C153.484 43.4173 154.347 42.7826 155.584 42.3594C154.282 41.9362 153.484 41.4967 153.191 41.041C152.898 40.5527 152.687 40.0807 152.557 39.625L152.068 37.916C151.255 35.0189 149.839 32.8704 147.82 31.4707C147.137 30.9824 146.404 30.6732 145.623 30.543ZM155.877 88.3066C152.426 89.8366 146.925 90.6016 139.373 90.6016C131.821 90.6016 126.613 89.9668 123.748 88.6973C123.618 88.8926 123.602 89.1855 123.699 89.5762C123.797 89.9668 123.976 90.3249 124.236 90.6504C124.497 90.9759 125.197 91.2852 126.336 91.5781C127.508 91.8711 128.842 92.099 130.34 92.2617C132.618 92.5547 135.092 92.7012 137.762 92.7012C140.431 92.7012 142.612 92.6686 144.305 92.6035C146.03 92.5384 147.641 92.4245 149.139 92.2617C152.622 91.8385 154.705 91.1712 155.389 90.2598C155.812 89.7064 155.975 89.0553 155.877 88.3066ZM213.006 98.3652C211.313 99.4395 209.425 99.9766 207.342 99.9766C205.291 99.9766 203.387 99.4395 201.629 98.3652C199.839 99.4395 198.195 99.9766 196.697 99.9766C195.2 99.9766 193.995 99.8464 193.084 99.5859C192.173 99.3581 191.375 99.0326 190.691 98.6094C189.292 97.763 188.592 96.7051 188.592 95.4355C188.592 94.7845 188.771 94.2148 189.129 93.7266C189.845 94.2799 190.789 94.5566 191.961 94.5566C193.165 94.5566 194.37 94.2474 195.574 93.6289C196.811 93.0104 197.739 92.0501 198.357 90.748V66.9688C198.357 65.4714 198.048 64.3646 197.43 63.6484C196.453 62.444 194.777 61.2559 192.4 60.084C194.614 59.0749 196.046 58.1797 196.697 57.3984C197.804 56.1289 198.357 54.6966 198.357 53.1016V30.4453C197.283 30.0547 195.997 29.8594 194.5 29.8594C193.035 29.8594 191.489 30.25 189.861 31.0312C188.234 31.8125 186.769 32.9518 185.467 34.4492C182.57 37.8346 181.121 42.2617 181.121 47.7305C181.121 50.888 181.642 53.2155 182.684 54.7129C182.293 55.5267 181.561 55.9336 180.486 55.9336C179.412 55.9336 178.452 55.6895 177.605 55.2012C176.759 54.7129 176.027 54.0456 175.408 53.1992C174.139 51.5065 173.504 49.6836 173.504 47.7305C173.504 45.7773 173.862 44.1172 174.578 42.75C173.374 41.3177 172.771 39.7064 172.771 37.916C172.771 36.0931 173.26 34.5957 174.236 33.4238C172.869 31.959 172.186 29.9896 172.186 27.5156C172.186 24.651 173.504 22.7305 176.141 21.7539C176.922 21.4609 177.605 21.3145 178.191 21.3145C179.298 21.3145 180.128 21.5586 180.682 22.0469C180.454 22.8281 180.34 23.3815 180.34 23.707C180.34 25.0091 180.796 25.6602 181.707 25.6602C182.195 25.6602 182.7 25.5951 183.221 25.4648L185.418 24.8301C189.227 23.821 192.4 23.3164 194.939 23.3164C197.479 23.3164 199.708 23.8698 201.629 24.9766C203.289 23.8698 205.177 23.3164 207.293 23.3164C209.409 23.3164 211.329 23.8698 213.055 24.9766C214.91 23.8698 216.831 23.3164 218.816 23.3164C221.974 23.3164 224.741 23.6419 227.117 24.293L231.463 25.4648C231.984 25.5951 232.488 25.6602 232.977 25.6602C233.888 25.6602 234.344 25.0091 234.344 23.707C234.344 23.3815 234.23 22.8281 234.002 22.0469C234.555 21.5586 235.255 21.3145 236.102 21.3145C236.948 21.3145 237.762 21.4609 238.543 21.7539C239.324 22.0469 240.008 22.4701 240.594 23.0234C241.863 24.1628 242.498 25.8066 242.498 27.9551C242.498 30.071 241.814 31.8939 240.447 33.4238C241.424 34.5957 241.912 36.0768 241.912 37.8672C241.912 39.6576 241.294 41.2852 240.057 42.75C240.805 44.0846 241.18 45.4193 241.18 46.7539C241.18 48.0885 241.017 49.293 240.691 50.3672C240.366 51.4414 239.894 52.3854 239.275 53.1992C237.941 55.0221 236.264 55.9336 234.246 55.9336C233.139 55.9336 232.391 55.5267 232 54.7129C233.042 53.2155 233.562 50.9694 233.562 47.9746C233.562 44.9473 233.156 42.3268 232.342 40.1133C231.561 37.8672 230.519 35.9792 229.217 34.4492C226.58 31.3893 223.471 29.8594 219.891 29.8594C218.523 29.8594 217.335 30.0547 216.326 30.4453V53.1016C216.326 54.6966 216.668 55.8848 217.352 56.666C218.426 57.9355 220.07 59.0749 222.283 60.084C219.907 61.2559 218.393 62.2161 217.742 62.9648C216.798 64.1367 216.326 65.4714 216.326 66.9688V90.748C216.912 92.0501 217.807 93.0104 219.012 93.6289C220.249 94.2474 221.469 94.5566 222.674 94.5566C223.878 94.5566 224.839 94.2799 225.555 93.7266C225.913 94.2148 226.092 94.7845 226.092 95.4355C226.092 96.054 225.896 96.64 225.506 97.1934C225.148 97.7467 224.643 98.2188 223.992 98.6094C222.495 99.5208 220.737 99.9766 218.719 99.9766C216.733 99.9766 214.829 99.4395 213.006 98.3652ZM203.045 86.0605C204.673 85.4421 205.568 83.3099 205.73 79.6641C205.926 76.0182 206.023 70.9727 206.023 64.5273C206.023 58.082 206.007 53.8014 205.975 51.6855C205.975 49.5371 205.958 47.8118 205.926 46.5098C205.828 42.6686 205.454 40.3574 204.803 39.5762C204.184 38.7624 203.598 38.2253 203.045 37.9648C203.045 49.293 202.85 55.7383 202.459 57.3008C202.003 58.6029 200.896 59.5306 199.139 60.084C201.092 60.7676 202.199 61.5977 202.459 62.5742C202.85 64.1367 203.045 69.8496 203.045 79.7129V86.0605ZM260.955 98.4141C259.067 100.042 257.326 100.855 255.73 100.855C254.168 100.855 252.98 100.465 252.166 99.6836C251.385 98.9349 250.994 97.9421 250.994 96.7051C251.743 96.347 252.312 95.9564 252.703 95.5332C252.15 93.873 251.873 91.8874 251.873 89.5762C251.873 87.265 252.264 84.9538 253.045 82.6426C253.859 80.2988 255.047 78.1016 256.609 76.0508C259.409 72.4375 264.113 68.6615 270.721 64.7227C274.66 62.0859 277.443 59.4167 279.07 56.7148C281.023 53.3945 282 49.1953 282 44.1172C282 34.612 278.761 29.8594 272.283 29.8594C268.995 29.8594 266.212 30.9987 263.934 33.2773C261.492 35.7188 260.271 39.0553 260.271 43.2871C260.271 47.5189 261.102 50.6764 262.762 52.7598C262.013 53.3783 261.232 53.6875 260.418 53.6875C259.637 53.6875 258.823 53.541 257.977 53.248C257.13 52.9225 256.349 52.4505 255.633 51.832C254.005 50.3346 253.191 48.5768 253.191 46.5586C253.191 44.5078 253.452 42.8965 253.973 41.7246C252.247 40.5853 251.385 39.1042 251.385 37.2812C251.385 35.4583 252.003 33.8958 253.24 32.5938C252.199 31.2591 251.678 30.0384 251.678 28.9316C251.678 27.7923 251.824 26.832 252.117 26.0508C252.443 25.237 252.898 24.5208 253.484 23.9023C254.689 22.6328 256.154 21.998 257.879 21.998C258.725 21.998 259.507 22.1771 260.223 22.5352C259.767 23.1536 259.539 23.8047 259.539 24.4883C259.539 25.3672 260.027 25.8066 261.004 25.8066C261.655 25.8066 262.859 25.5137 264.617 24.9277C267.84 23.8535 271.404 23.3164 275.311 23.3164C279.217 23.3164 282.358 23.5605 284.734 24.0488C287.143 24.5371 289.324 25.3184 291.277 26.3926C295.216 28.541 298.309 32.0729 300.555 36.9883C301.596 39.3646 303.143 41.1549 305.193 42.3594C303.24 43.4661 301.613 45.6471 300.311 48.9023C297.934 54.6966 294.012 59.4818 288.543 63.2578C286.655 64.5273 284.197 65.9108 281.17 67.4082C278.143 68.873 275.376 70.3542 272.869 71.8516C270.363 73.349 268.328 74.7487 266.766 76.0508C263.868 78.4596 262.111 80.9499 261.492 83.5215C266.017 84.3027 270.818 84.6934 275.896 84.6934C280.975 84.6934 284.523 84.5469 286.541 84.2539C288.559 83.9284 290.171 83.4401 291.375 82.7891C293.621 81.6497 294.744 79.7943 294.744 77.2227C294.744 76.2786 294.549 75.4648 294.158 74.7812C294.354 74.3255 294.907 74.0977 295.818 74.0977C296.73 74.0977 297.527 74.2767 298.211 74.6348C298.927 74.9928 299.546 75.4648 300.066 76.0508C301.173 77.3529 301.727 78.9967 301.727 80.9824C301.727 82.9681 300.929 84.791 299.334 86.4512C300.571 87.265 301.189 88.4043 301.189 89.8691C301.189 91.334 300.766 92.4896 299.92 93.3359C300.376 94.0846 300.604 94.8496 300.604 95.6309C300.604 96.3796 300.457 97.0306 300.164 97.584C299.904 98.1048 299.546 98.5443 299.09 98.9023C298.113 99.6185 296.876 99.9766 295.379 99.9766C293.882 99.9766 292.482 99.651 291.18 99C286.46 99.651 281.577 99.9766 276.531 99.9766C271.518 99.9766 266.326 99.4557 260.955 98.4141ZM282.83 30.543C285.239 33.2448 286.443 37.4766 286.443 43.2383C286.443 48.8698 285.988 52.776 285.076 54.957C286.378 54.6966 287.501 53.3294 288.445 50.8555C288.771 49.944 289.015 49 289.178 48.0234C289.373 47.0469 289.52 46.2819 289.617 45.7285C289.747 45.1751 289.943 44.6868 290.203 44.2637C290.691 43.4173 291.554 42.7826 292.791 42.3594C291.489 41.9362 290.691 41.4967 290.398 41.041C290.105 40.5527 289.894 40.0807 289.764 39.625L289.275 37.916C288.462 35.0189 287.046 32.8704 285.027 31.4707C284.344 30.9824 283.611 30.6732 282.83 30.543ZM293.084 88.3066C289.633 89.8366 284.132 90.6016 276.58 90.6016C269.028 90.6016 263.82 89.9668 260.955 88.6973C260.825 88.8926 260.809 89.1855 260.906 89.5762C261.004 89.9668 261.183 90.3249 261.443 90.6504C261.704 90.9759 262.404 91.2852 263.543 91.5781C264.715 91.8711 266.049 92.099 267.547 92.2617C269.826 92.5547 272.299 92.7012 274.969 92.7012C277.638 92.7012 279.819 92.6686 281.512 92.6035C283.237 92.5384 284.848 92.4245 286.346 92.2617C289.829 91.8385 291.912 91.1712 292.596 90.2598C293.019 89.7064 293.182 89.0553 293.084 88.3066ZM313.494 98.6582C312.29 99.5371 310.906 99.9766 309.344 99.9766C307.814 99.9766 306.593 99.5859 305.682 98.8047C304.738 97.9909 304.266 97.0632 304.266 96.0215C304.266 94.9798 304.428 94.2148 304.754 93.7266C305.698 94.2799 306.854 94.5566 308.221 94.5566C309.62 94.5566 310.662 94.3776 311.346 94.0195C312.062 93.6289 312.745 93.1081 313.396 92.457L320.33 71.9004L321.307 68.5312C321.6 67.5221 321.746 66.5944 321.746 65.748C321.746 62.7858 320.346 60.8978 317.547 60.084C320.118 59.1074 321.925 58.0495 322.967 56.9102C324.594 55.1198 325.88 52.7598 326.824 49.8301L332.195 31.8125C331.154 30.4128 329.917 29.7129 328.484 29.7129C327.052 29.7129 325.717 30.0221 324.48 30.6406C324.155 30.0547 323.992 29.4036 323.992 28.6875C323.992 27.9388 324.139 27.2389 324.432 26.5879C324.757 25.9368 325.197 25.3672 325.75 24.8789C326.987 23.8372 328.745 23.3164 331.023 23.3164C333.302 23.3164 335.239 24 336.834 25.3672C338.462 24 340.48 23.3164 342.889 23.3164C345.33 23.3164 347.267 23.9674 348.699 25.2695C350.783 23.9674 352.898 23.3164 355.047 23.3164C357.195 23.3164 358.855 23.7233 360.027 24.5371C361.232 25.3509 361.834 26.4577 361.834 27.8574C361.834 28.5085 361.639 29.0781 361.248 29.5664C360.499 29.013 359.62 28.7363 358.611 28.7363C356.43 28.7363 355.014 30.2174 354.363 33.1797L360.613 53.1504C361.395 55.6569 363.348 57.61 366.473 59.0098C367.352 59.4004 368.247 59.7585 369.158 60.084C365.903 61.1582 364.275 62.7695 364.275 64.918C364.275 65.7318 364.406 66.4479 364.666 67.0664L373.992 92.0664C375.424 93.5638 376.873 94.3125 378.338 94.3125C379.803 94.3125 380.942 94.0358 381.756 93.4824C382.114 93.7428 382.293 94.2311 382.293 94.9473C382.293 95.6634 382.179 96.3307 381.951 96.9492C381.723 97.5352 381.365 98.056 380.877 98.5117C379.835 99.4883 378.305 99.9766 376.287 99.9766C374.269 99.9766 372.511 99.4232 371.014 98.3164C369.321 99.4232 367.4 99.9766 365.252 99.9766C363.136 99.9766 361.313 99.4395 359.783 98.3652C358.318 99.4395 356.593 99.9766 354.607 99.9766C352.622 99.9766 350.978 99.5697 349.676 98.7559C348.374 97.9095 347.69 96.7214 347.625 95.1914C347.625 94.2799 347.804 93.7103 348.162 93.4824C349.041 94.0358 349.936 94.3125 350.848 94.3125C352.768 94.3125 354.119 93.9219 354.9 93.1406L351.189 80.6895H324.773L321.551 91.4805C322.885 93.5312 324.497 94.5566 326.385 94.5566C328.305 94.5566 329.738 94.2799 330.682 93.7266C331.04 94.3125 331.219 95.1263 331.219 96.168C331.219 97.1771 330.714 98.0723 329.705 98.8535C328.696 99.6022 327.394 99.9766 325.799 99.9766C324.204 99.9766 322.739 99.5697 321.404 98.7559C320.232 99.5697 318.882 99.9766 317.352 99.9766C315.854 99.9766 314.568 99.5371 313.494 98.6582ZM349.188 74.0977L337.859 36.4512L326.727 74.0977H349.188ZM358.514 86.0605C359.1 86.0605 359.393 85.4095 359.393 84.1074C359.393 81.8288 359.051 79.6152 358.367 77.4668L356.512 71.7539C355.21 67.457 354.559 64.7552 354.559 63.6484C354.526 61.8255 355.324 60.6211 356.951 60.0352C354.705 59.5794 353.338 58.8796 352.85 57.9355C352.622 57.5449 352.426 57.2357 352.264 57.0078C352.133 56.7799 351.987 56.5195 351.824 56.2266C351.694 55.901 351.531 55.4941 351.336 55.0059C351.141 54.5176 350.88 53.8177 350.555 52.9062L347.527 43.7754C346.811 41.4967 345.753 39.7715 344.354 38.5996C343.93 38.2415 343.54 38.0299 343.182 37.9648C345.363 45.8424 346.795 50.888 347.479 53.1016C352.199 67.6198 355.031 76.2298 355.975 78.9316L358.514 86.0605ZM372.918 90.4551L373.016 90.748L372.918 90.4551Z" fill="url(#paint1_diamond)"/>
<defs>
<radialGradient id="paint0_diamond" cx="0" cy="0" r="1" gradientUnits="userSpaceOnUse" gradientTransform="translate(50 62) rotate(90) scale(50)">
<stop stop-color="white"/>
<stop offset="0.0001" stop-color="white"/>
<stop offset="0.497917" stop-color="white" stop-opacity="0"/>
</radialGradient>
<radialGradient id="paint1_diamond" cx="0" cy="0" r="1" gradientUnits="userSpaceOnUse" gradientTransform="translate(243 62.5) rotate(90) scale(62.5 136)">
<stop stop-color="white"/>
<stop offset="0.0001" stop-color="white"/>
<stop offset="0.497917" stop-color="white" stop-opacity="0"/>
</radialGradient>
</defs>
</svg>
